<svg width="50" height="50" viewBox="0 0 50 50" fill="none" xmlns="http://www.w3.org/2000/svg">
<path d="M42.5834 0H7.41658C5.45123 0.00558034 3.56793 0.788569 2.17838 2.17839C0.788568 3.56784 0.00553569 5.45123 0 7.41658V42.5834C0.00558034 44.5488 0.788568 46.4321 2.17838 47.8216C3.56784 49.2114 5.45123 49.9945 7.41658 50H42.5834C44.5488 49.9944 46.4321 49.2114 47.8216 47.8216C49.2114 46.4322 49.9945 44.5488 50 42.5834V7.41658C49.9944 5.45123 49.2114 3.56793 47.8216 2.17839C46.4322 0.788569 44.5488 0.00553569 42.5834 0V0ZM45.8332 42.5829C45.8332 43.4447 45.4911 44.2713 44.8815 44.8809C44.2718 45.4906 43.4452 45.8327 42.5834 45.8327H7.41658C6.55477 45.8327 5.72819 45.4906 5.11855 44.8809C4.50891 44.2713 4.16677 43.4447 4.16677 42.5829V7.41605C4.16677 6.55424 4.50891 5.72766 5.11855 5.11802C5.72819 4.50838 6.5548 4.16624 7.41658 4.16624H42.5834C43.4452 4.16624 44.2718 4.50838 44.8815 5.11802C45.4911 5.72766 45.8332 6.55426 45.8332 7.41605V42.5829Z" fill="white"/>
<path d="M25.0004 12.4999C21.6854 12.4999 18.506 13.8169 16.1615 16.161C13.8174 18.5055 12.5005 21.6848 12.5005 24.9999C12.5005 28.315 13.8174 31.4943 16.1615 33.8388C18.506 36.1829 21.6854 37.4999 25.0004 37.4999C28.3155 37.4999 31.4949 36.1829 33.8393 33.8388C36.1834 31.4943 37.5004 28.315 37.5004 24.9999C37.5004 21.6848 36.1834 18.5055 33.8393 16.161C31.4949 13.8169 28.3155 12.4999 25.0004 12.4999ZM25.0004 33.3329C22.7903 33.3329 20.6708 32.455 19.108 30.8922C17.5451 29.3293 16.6673 27.2099 16.6673 24.9997C16.6673 22.7895 17.5451 20.6701 19.108 19.1072C20.6708 17.5444 22.7903 16.6665 25.0004 16.6665C27.2106 16.6665 29.3301 17.5444 30.8929 19.1072C32.4558 20.6701 33.3336 22.7895 33.3336 24.9997C33.3336 27.2099 32.4558 29.3293 30.8929 30.8922C29.3301 32.455 27.2106 33.3329 25.0004 33.3329Z" fill="white"/>
<path d="M41.6673 11.458C41.6673 13.1841 40.2681 14.583 38.5423 14.583C36.8163 14.583 35.4174 13.1841 35.4174 11.458C35.4174 9.73229 36.8163 8.33301 38.5423 8.33301C40.2681 8.33301 41.6673 9.73229 41.6673 11.458Z" fill="white"/>
</svg>
