<svg width="51" height="50" viewBox="0 0 51 50" fill="none" xmlns="http://www.w3.org/2000/svg">
<path d="M39.6406 50C38.9706 50 38.2356 49.7394 37.4406 49.2202L19.4355 33.4744C19.2339 33.2987 19.1105 33.0243 19.0972 32.7282C19.0855 32.4321 19.1855 32.1458 19.3722 31.9464L40.699 9.21414C41.0406 8.84892 41.5673 8.8805 41.8756 9.28718C42.184 9.69188 42.1556 10.3157 41.814 10.6809L21.2472 32.6058L38.3373 47.5619C38.789 47.8482 39.5523 48.2114 40.0956 47.9133C40.649 47.6133 40.9223 46.6558 41.0556 45.9056L48.3473 5.20465C48.6307 3.86025 48.494 2.77842 47.989 2.28093C47.604 1.9019 47.0307 1.87426 46.4107 2.20592L3.55045 21.7855C2.23544 22.4113 1.82211 23.0549 1.82877 23.2681C1.83377 23.4082 2.11711 23.7952 2.96211 24.1012L13.5872 28.0297L25.2522 19.3119C25.6422 19.0237 26.1556 19.1599 26.4006 19.6199C26.6456 20.0798 26.5306 20.6898 26.1406 20.98L14.1505 29.9407C13.9438 30.0947 13.6888 30.1342 13.4572 30.0493L2.47044 25.9865C0.520432 25.2797 0.187097 24.0321 0.163763 23.351C0.13043 22.4172 0.585432 21.0669 2.94211 19.9495L45.7673 0.389702C46.929 -0.238077 48.1757 -0.103835 49.0573 0.766764C50.079 1.77555 50.4123 3.55623 49.9723 5.6508L42.6873 46.3143C42.3806 48.0476 41.744 49.1906 40.7923 49.7078C40.434 49.9033 40.0506 50 39.6406 50Z" fill="white"/>
<path d="M39.6406 50C38.9706 50 38.2356 49.7394 37.4406 49.2202L26.2406 39.4304C25.8706 39.1067 25.7906 38.4868 26.0656 38.0505C26.3389 37.6122 26.8622 37.5175 27.2306 37.8432L38.3373 47.5619C38.789 47.8482 39.5523 48.2114 40.0956 47.9133C40.649 47.6133 40.9223 46.6558 41.0556 45.9056L48.3473 5.20465C48.6307 3.86025 48.494 2.77842 47.989 2.28093C47.604 1.9019 47.0307 1.87426 46.4107 2.20592L3.55045 21.7855C2.23544 22.4113 1.82211 23.0549 1.82877 23.2681C1.83377 23.4082 2.11711 23.7952 2.96211 24.1012L13.9522 28.164C14.2155 28.2607 14.4205 28.5075 14.5022 28.8194L18.2805 43.5485C18.3822 43.8782 18.4605 44.2059 18.5289 44.4902C18.5822 44.7152 18.6489 44.9955 18.6939 45.0785C18.6872 45.0686 18.8205 45.116 19.1755 45.1179C19.9205 45.1179 20.2039 44.7883 20.7705 44.1348L23.5372 40.9485C23.8672 40.5656 24.3939 40.5774 24.7156 40.9683C25.0356 41.3592 25.0289 41.985 24.6989 42.364L21.9789 45.493C21.3089 46.2689 20.5989 47.0901 19.1755 47.0901C17.5422 47.0901 17.2122 46.2333 16.9238 45.0251C16.8655 44.7804 16.7988 44.4981 16.6988 44.1723L13.0355 29.8933L2.47044 25.9865C0.520432 25.2797 0.187097 24.0321 0.163763 23.351C0.13043 22.4172 0.585432 21.0669 2.94211 19.9495L45.7673 0.389702C46.929 -0.238077 48.1757 -0.103835 49.0573 0.766764C50.079 1.77555 50.4124 3.55623 49.9723 5.6508L42.6873 46.3143C42.3806 48.0476 41.744 49.1906 40.7923 49.7078C40.434 49.9033 40.0506 50 39.6406 50Z" fill="white"/>
<path d="M29.3289 18.0919C29.3289 18.6348 28.9539 19.0789 28.4956 19.0789C28.0372 19.0789 27.6622 18.6348 27.6622 18.0919C27.6622 17.549 28.0372 17.1048 28.4956 17.1048C28.9539 17.1048 29.3289 17.549 29.3289 18.0919Z" fill="white"/>
</svg>
