<svg width="62" height="50" viewBox="0 0 62 50" fill="none" xmlns="http://www.w3.org/2000/svg">
<path d="M50.2548 50C49.5785 50 48.2081 49.774 46.6115 48.2496C45.4063 47.0911 44.2419 45.2367 43.1156 43.4397C41.4045 40.7102 39.7672 38.1815 38.4502 38.7661C36.6552 39.566 36.2281 44.2504 36.2535 46.6176C36.251 46.8508 36.2128 47.7869 35.7654 48.4613C35.4298 48.9347 34.9798 49.1212 34.1306 49.1571L30.3601 49.1679C30.3627 49.1715 30.1796 49.1858 29.8771 49.1858C27.9677 49.1858 21.2734 48.5115 15.3165 39.8565C7.6408 28.7123 0.85246 6.69297 0.783813 6.47059L0.959243 4.19297C0.971955 4.18221 0.984667 4.16786 0.994837 4.1571L1.38892 3.88092C1.88469 3.63702 2.46183 3.61908 2.60421 3.61908L11.1214 3.54376C11.3553 3.57604 12.1435 3.78407 12.6952 4.32927C13.1833 4.84577 13.4554 5.72095 13.4681 5.7604C13.4961 5.85725 14.8868 10.7712 16.7529 15.2367C20.0988 23.3106 21.876 26.0509 23.3201 24.9713C24.2176 24.2898 24.9625 20.2116 24.5888 12.6578C24.5989 11.1119 24.4261 8.05954 23.6786 6.66786C23.2108 5.77475 22.5192 5.25466 22.0234 4.97489L20.3658 4.04232L21.7107 2.3924C21.9065 2.15208 22.1124 1.95481 22.3209 1.80775C23.4675 1.02941 25.2295 0 27.388 0H30.3703C31.8907 0 32.7119 0.491391 33.3704 0.885939C33.6704 1.06169 33.9323 1.21951 34.2119 1.31635C36.5408 2.0911 36.4569 5.14706 36.3044 10.6923C36.2586 12.3422 36.2052 14.2217 36.2052 16.3415C36.2052 16.8185 36.1951 17.3278 36.1849 17.8479C36.1315 20.5273 36.0654 23.8056 37.3722 24.9857C38.1044 25.6277 39.7214 24.9426 43.7538 15.3802C45.6758 10.8034 47.0844 5.59541 47.0971 5.54519C47.1352 5.41966 47.4454 4.46915 47.9132 4.05667C48.2234 3.78766 48.5946 3.73386 48.8539 3.73386L49.1946 3.75897L58.3932 3.65854C58.3881 3.65495 58.6728 3.61549 59.0542 3.61549C60.3559 3.61549 60.9331 4.05667 61.0806 4.18938L61.378 4.46198L61.5077 4.93185C62.0009 6.77547 60.3941 11.1621 56.7228 17.9735C55.9346 19.4297 55.2431 20.6887 54.638 21.7826C50.5294 29.2073 50.5294 29.2073 54.9838 34.9713C58.8635 39.9857 60.4399 43.1062 61.078 44.8386C61.6043 46.0366 61.734 47.1234 61.4314 47.9735C60.8492 49.566 58.9627 49.7776 58.8839 49.7884L50.5167 49.9821C50.5294 49.9857 50.4175 50 50.2548 50ZM38.8697 35.6026C41.1121 35.6026 42.7978 38.2891 44.7504 41.3989C45.7877 43.056 46.8606 44.7633 47.8395 45.6994C49.0268 46.8329 49.9904 46.9261 50.2573 46.9261V48.4613L50.3463 46.9189L58.7873 46.7181C58.9271 46.7001 59.1102 46.6392 59.2703 46.5638C59.2474 46.4957 59.2169 46.4275 59.1839 46.3451C58.6906 45.0143 57.3482 42.1951 53.5142 37.231C48.1852 30.3407 48.1242 28.5545 52.9218 19.8888C53.5269 18.802 54.2134 17.5574 54.9914 16.1119C57.8796 10.7496 58.8864 7.97704 59.2373 6.68938C58.9525 6.67862 58.6017 6.7109 58.5483 6.71808L49.1387 6.82568L49.0344 6.81851C48.8285 7.73314 47.4479 12.604 45.6275 16.9476C41.4503 26.84 39.3909 28.2066 37.7841 28.2102C37.212 28.2102 36.6832 27.995 36.2103 27.5789C33.856 25.4484 33.9424 21.0294 34.006 17.8013C34.0187 17.2669 34.0289 16.7862 34.0289 16.3343C34.0289 14.1679 34.0823 12.2489 34.128 10.5631C34.2831 5.04304 34.1255 4.43687 33.7111 4.30057C33.317 4.16428 32.9382 3.95983 32.5263 3.71234C31.9466 3.36442 31.4508 3.06671 30.3703 3.06671H27.388C26.3914 3.06671 25.4812 3.35724 24.7108 3.72668C24.9651 4.04232 25.2066 4.40818 25.4227 4.82425C26.7448 7.28479 26.7727 11.7073 26.7651 12.5682C27.1846 21.0115 26.371 26.1334 24.3498 27.6722C23.8337 28.0595 23.2896 28.2568 22.7277 28.2568C20.409 28.2568 18.4259 25.3587 14.8766 16.7826C12.8935 12.0445 11.4697 6.96915 11.4545 6.91894C11.3629 6.76829 11.0807 6.63199 10.9333 6.59254L3.23982 6.68221C4.87462 11.7145 10.6282 28.6442 16.8775 37.7224C22.2421 45.5093 28.1838 46.1155 29.8771 46.1155C30.1059 46.1155 30.2483 46.1011 30.2839 46.0976L34.0772 46.0904C34.1026 43.8917 34.4662 37.3135 37.7943 35.8393C38.1375 35.6815 38.5011 35.6026 38.8697 35.6026Z" fill="white"/>
</svg>
