<svg width="53" height="54" viewBox="0 0 53 54" fill="none" xmlns="http://www.w3.org/2000/svg">
<path d="M13.0451 48.2963C11.5636 47.3704 4.34138 52.7407 3.23027 51.4444C2.11916 50.3333 6.93397 42.7407 6.00805 41.4444C3.04508 37.3704 1.37842 32.3704 1.37842 27C1.37842 13.2963 12.4895 2 26.3784 2C40.2673 2 51.3784 13.2963 51.3784 27C51.3784 40.7037 40.2673 52 26.3784 52C24.5266 52 22.8599 51.8148 21.1932 51.4444" stroke="white" stroke-width="2.25" stroke-miterlimit="10" stroke-linecap="round" stroke-linejoin="round"/>
<path d="M21.1932 14.4074L23.4155 19.963C23.6006 20.3333 23.4155 20.7037 23.0451 20.8889C22.1192 21.4444 20.8229 22.7407 22.3043 24.7778C24.1562 27.3704 29.1562 33.8519 33.2303 29.5926C33.4155 29.4074 33.7858 29.2222 34.1562 29.4074L40.0821 32C40.4525 32.1852 40.6377 32.7407 40.4525 33.1111C39.1562 35.7037 34.1562 42.5556 21.7488 31.8148C9.15619 20.8889 17.3043 15.5185 20.0821 14.2222C20.4525 13.6667 21.008 13.8519 21.1932 14.4074Z" stroke="white" stroke-width="2.25" stroke-miterlimit="10" stroke-linecap="round" stroke-linejoin="round"/>
</svg>
